<svg width="373" height="60" viewBox="0 0 373 60" fill="none" xmlns="http://www.w3.org/2000/svg">
<g clip-path="url(#clip0_157_2)">
<g clip-path="url(#clip1_157_2)">
<path d="M0.125 34.4626C0.125 33.9843 0.408215 33.5468 0.850043 33.3489C10.2865 29.1219 15.9091 29.118 25.4188 33.3499C25.862 33.5471 26.1467 33.9855 26.1467 34.4648V45.7715C26.1467 46.6725 25.1965 47.2689 24.357 46.9126C15.8564 43.3016 10.4008 43.2999 1.91564 46.9106C1.07608 47.2677 0.125 46.6713 0.125 45.7698V34.4626Z" fill="#475569"/>
<path d="M39.3807 9.84441C39.8015 10.0878 40.0407 10.5533 39.9872 11.0312C38.8565 21.1398 36.0202 25.915 27.5832 31.8784C27.1857 32.1594 26.655 32.181 26.233 31.9371L16.5392 26.3266C15.7539 25.8721 15.7101 24.7677 16.4411 24.2324C23.8458 18.8105 26.6037 14.1786 27.784 5.17221C27.9007 4.28109 28.9012 3.77929 29.6872 4.23421L39.3807 9.84441Z" fill="#475569"/>
<path d="M41.3653 55.6143C40.9395 55.8494 40.4108 55.8176 40.0193 55.5303C31.748 49.4581 29.0048 44.6302 28.053 34.4358C28.008 33.9559 28.257 33.4939 28.6838 33.2583L38.4915 27.8456C39.2863 27.4069 40.2758 27.9282 40.3745 28.821C41.3745 37.8628 44.0328 42.551 51.3153 48.1086C52.0358 48.6581 51.9693 49.7622 51.1743 50.2009L41.3653 55.6143Z" fill="#475569"/>
</g>
<path d="M86.288 41.384V32.072H73.856V11.432H103.904V32.072H91.52V41.384H108.32V45.656H69.632V41.384H86.288ZM79.04 15.608V27.896H98.768V15.608H79.04ZM125.313 11.048C127.521 11.048 129.505 11.496 131.265 12.392C133.025 13.256 134.401 14.488 135.393 16.088C136.417 17.656 136.929 19.432 136.929 21.416C136.929 23.4 136.417 25.192 135.393 26.792C134.401 28.36 133.025 29.592 131.265 30.488C129.505 31.352 127.521 31.784 125.313 31.784C123.105 31.784 121.105 31.352 119.313 30.488C117.553 29.592 116.161 28.36 115.137 26.792C114.145 25.224 113.649 23.432 113.649 21.416C113.649 19.432 114.145 17.656 115.137 16.088C116.161 14.488 117.553 13.256 119.313 12.392C121.105 11.496 123.105 11.048 125.313 11.048ZM125.313 15.608C123.393 15.608 121.825 16.136 120.609 17.192C119.393 18.248 118.785 19.656 118.785 21.416C118.785 23.176 119.393 24.6 120.609 25.688C121.857 26.744 123.425 27.272 125.313 27.272C127.201 27.272 128.753 26.744 129.969 25.688C131.185 24.6 131.793 23.176 131.793 21.416C131.793 19.656 131.185 18.248 129.969 17.192C128.753 16.136 127.201 15.608 125.313 15.608ZM146.817 8.072V50.936H141.585V8.072H146.817ZM111.729 37.688C117.105 37.688 122.001 37.608 126.417 37.448C130.833 37.256 135.041 36.856 139.041 36.248L139.425 40.088C135.297 40.888 131.041 41.416 126.657 41.672C122.273 41.896 117.505 42.008 112.353 42.008L111.729 37.688ZM188.098 12.008V16.136C188.098 19.784 188.002 23.08 187.81 26.024C187.65 28.968 187.218 32.408 186.514 36.344L181.186 35.768C181.922 32.12 182.37 28.856 182.53 25.976C182.722 23.064 182.818 19.832 182.818 16.28H157.522V12.008H188.098ZM167.746 41.048V26.168H172.978V41.048H192.178V45.368H153.538V41.048H167.746ZM210.659 11.624V18.344C210.659 20.904 211.059 23.416 211.859 25.88C212.691 28.344 213.875 30.552 215.411 32.504C216.947 34.424 218.787 35.912 220.931 36.968L217.715 41.144C215.475 39.992 213.539 38.36 211.907 36.248C210.275 34.136 208.995 31.688 208.067 28.904C207.107 31.88 205.763 34.504 204.035 36.776C202.307 39.048 200.259 40.776 197.891 41.96L194.723 37.688C196.931 36.632 198.835 35.096 200.435 33.08C202.067 31.032 203.299 28.728 204.131 26.168C204.995 23.608 205.427 21 205.427 18.344V11.624H210.659ZM228.707 8.168V24.92H235.235V29.336H228.707V50.888H223.379V8.168H228.707ZM271.403 12.344C271.403 17.016 270.827 21.256 269.675 25.064C268.555 28.84 266.555 32.376 263.675 35.672C260.795 38.936 256.827 41.816 251.771 44.312L248.987 40.232C252.603 38.44 255.579 36.472 257.915 34.328C260.283 32.184 262.107 29.8 263.387 27.176L249.995 28.424L249.275 23.912L265.067 22.952C265.675 20.872 266.043 18.744 266.171 16.568H251.435V12.344H271.403ZM283.835 8.12V50.84H278.555V8.12H283.835ZM329.148 32.264V36.536H312.3V50.888H307.02V36.536H290.46V32.264H329.148ZM309.66 9.752C312.668 9.752 315.324 10.136 317.628 10.904C319.932 11.672 321.724 12.776 323.004 14.216C324.284 15.624 324.924 17.288 324.924 19.208C324.924 21.128 324.284 22.808 323.004 24.248C321.724 25.656 319.932 26.76 317.628 27.56C315.324 28.328 312.668 28.712 309.66 28.712C306.684 28.712 304.044 28.328 301.74 27.56C299.436 26.76 297.644 25.656 296.364 24.248C295.084 22.808 294.444 21.128 294.444 19.208C294.444 17.288 295.084 15.624 296.364 14.216C297.644 12.776 299.42 11.672 301.692 10.904C303.996 10.136 306.652 9.752 309.66 9.752ZM309.66 13.928C306.652 13.928 304.268 14.408 302.508 15.368C300.748 16.296 299.868 17.576 299.868 19.208C299.868 20.872 300.748 22.184 302.508 23.144C304.268 24.072 306.652 24.536 309.66 24.536C312.7 24.536 315.1 24.072 316.86 23.144C318.652 22.184 319.548 20.872 319.548 19.208C319.548 17.576 318.652 16.296 316.86 15.368C315.1 14.408 312.7 13.928 309.66 13.928ZM367.741 8.12V50.84H362.461V8.12H367.741ZM355.117 12.584C355.117 19.432 353.597 25.416 350.557 30.536C347.517 35.656 342.461 39.928 335.389 43.352L332.653 39.176C338.093 36.552 342.173 33.416 344.893 29.768C347.613 26.12 349.213 21.816 349.693 16.856H334.765V12.584H355.117Z" fill="#475569"/>
</g>
<defs>
<clipPath id="clip0_157_2">
<rect width="373" height="60" fill="white"/>
</clipPath>
<clipPath id="clip1_157_2">
<rect width="52" height="52" fill="white" transform="translate(0 4)"/>
</clipPath>
</defs>
</svg>
